<?xml version="1.0" encoding="UTF-8" standalone="no"?>
<!-- Generator: Adobe Illustrator 24.0.1, SVG Export Plug-In . SVG Version: 6.00 Build 0)  -->

<svg
   version="1.1"
   id="Layer_1"
   x="0px"
   y="0px"
   viewBox="0 0 800 729.58895"
   xml:space="preserve"
   sodipodi:docname="Saudi_Ministry_of_Health_Logo.svg"
   width="300"
   height="273.59586"
   inkscape:version="1.3.2 (091e20e, 2023-11-25, custom)"
   xmlns:inkscape="http://www.inkscape.org/namespaces/inkscape"
   xmlns:sodipodi="http://sodipodi.sourceforge.net/DTD/sodipodi-0.dtd"
   xmlns="http://www.w3.org/2000/svg"
   xmlns:svg="http://www.w3.org/2000/svg"><defs
   id="defs1">
	

		
	
			
			
			
			
			
			
			
		</defs><sodipodi:namedview
   id="namedview1"
   pagecolor="#ffffff"
   bordercolor="#999999"
   borderopacity="1"
   inkscape:showpageshadow="2"
   inkscape:pageopacity="0"
   inkscape:pagecheckerboard="0"
   inkscape:deskcolor="#d1d1d1"
   inkscape:zoom="2.2466667"
   inkscape:cx="112.61128"
   inkscape:cy="102.81899"
   inkscape:window-width="1500"
   inkscape:window-height="912"
   inkscape:window-x="-8"
   inkscape:window-y="-8"
   inkscape:window-maximized="1"
   inkscape:current-layer="Layer_1" />
<style
   type="text/css"
   id="style1">
	.st0{fill:#9E925E;}
	.st1{fill-rule:evenodd;clip-rule:evenodd;fill:#9E925E;}
	.st2{fill:#008556;}
	.st3{fill-rule:evenodd;clip-rule:evenodd;fill:#008556;}
</style>
<g
   id="g2"
   transform="matrix(1.3333333,0,0,1.3333333,-133.33333,-168.53885)"><path
     class="st0"
     d="m 128.33386,644.13241 h -0.37653 L 108.56605,605.91465 H 100 v 49.79605 h 3.67116 v -40.57107 h 0.5648 l 20.70913,40.57107 h 1.69438 l 20.42674,-40.85347 h 0.28239 v 40.85347 h 8.37779 v -49.79605 h -8.37779 z m 38.50015,-25.41575 v 36.99404 h 7.62473 v -39.15908 h -2.25918 z m 6.87167,-19.95607 c -0.37653,-0.37653 -0.84719,-0.65893 -1.41199,-0.84719 -0.56479,-0.18827 -1.12959,-0.2824 -1.69438,-0.2824 -0.5648,0 -1.12959,0.0941 -1.69438,0.2824 -0.5648,0.18826 -0.94133,0.47066 -1.41199,0.84719 -0.37653,0.37653 -0.65893,0.75306 -0.94132,1.22372 -0.2824,0.47066 -0.37653,0.94133 -0.37653,1.50612 0,0.56479 0.0941,1.03546 0.37653,1.50612 0.28239,0.47066 0.56479,0.84719 0.94132,1.22372 0.37653,0.37653 0.84719,0.65893 1.41199,0.84719 0.56479,0.18827 1.12958,0.2824 1.69438,0.2824 0.56479,0 1.12959,-0.0941 1.69438,-0.2824 0.5648,-0.18826 1.03546,-0.47066 1.41199,-0.84719 0.37653,-0.37653 0.75306,-0.75306 0.94132,-1.22372 0.2824,-0.47066 0.37653,-0.94133 0.37653,-1.50612 0,-0.56479 -0.0941,-1.03546 -0.37653,-1.50612 -0.28239,-0.47066 -0.56479,-0.84719 -0.94132,-1.22372 m 39.34735,21.17979 c -0.84719,-1.03545 -1.88265,-1.88265 -3.10637,-2.44744 -1.22372,-0.56479 -2.44744,-0.94132 -3.7653,-0.94132 -2.63571,0 -5.17728,0.65892 -7.62472,1.97678 -2.54158,1.31785 -4.89489,3.29463 -7.2482,5.83621 v -6.9658 h -7.62473 v 38.40602 h 7.62473 v -28.52212 c 0.84719,-0.84719 1.78852,-1.60025 2.72984,-2.25918 0.94132,-0.65892 1.88265,-1.22372 2.82397,-1.78851 0.94133,-0.47066 1.88265,-0.84719 2.72984,-1.12959 0.94133,-0.2824 1.78852,-0.37653 2.54158,-0.37653 1.78851,0 3.29463,0.65893 4.42422,1.97678 1.12959,1.31785 1.69438,3.2005 1.69438,5.74208 v 26.26294 h 7.62473 v -27.5808 c 0,-1.60025 -0.2824,-3.10637 -0.75306,-4.51835 -0.47066,-1.41199 -1.12959,-2.63571 -2.07091,-3.67117 m 18.82648,-21.17979 c -0.37653,-0.37653 -0.84719,-0.65893 -1.41199,-0.84719 -0.56479,-0.18827 -1.12958,-0.2824 -1.69438,-0.2824 -0.56479,0 -1.12959,0.0941 -1.69438,0.2824 -0.5648,0.18826 -0.94133,0.47066 -1.41199,0.84719 -0.37653,0.37653 -0.75306,0.75306 -0.94132,1.22372 -0.2824,0.47066 -0.37653,0.94133 -0.37653,1.50612 0,0.56479 0.0941,1.03546 0.37653,1.50612 0.28239,0.47066 0.56479,0.84719 0.94132,1.22372 0.37653,0.37653 0.84719,0.65893 1.41199,0.84719 0.56479,0.18827 1.12959,0.2824 1.69438,0.2824 0.5648,0 1.12959,-0.0941 1.69438,-0.2824 0.5648,-0.18826 1.03546,-0.47066 1.41199,-0.84719 0.37653,-0.37653 0.65893,-0.75306 0.94132,-1.22372 0.2824,-0.47066 0.37653,-0.94133 0.37653,-1.50612 0,-0.56479 -0.0941,-1.03546 -0.37653,-1.50612 -0.18826,-0.47066 -0.56479,-0.84719 -0.94132,-1.22372 m -6.77753,19.95607 v 36.99404 h 7.62472 v -39.15908 h -2.25918 z m 40.28867,18.82648 c -1.03546,-0.94132 -2.25918,-1.69438 -3.57703,-2.44744 -1.31786,-0.65893 -2.72984,-1.31785 -4.14183,-1.97678 -1.41198,-0.65893 -2.82397,-1.22372 -4.14182,-1.78851 -1.31786,-0.5648 -2.54158,-1.22373 -3.57704,-1.88265 -1.03545,-0.65893 -1.88264,-1.50612 -2.54157,-2.35331 -0.65893,-0.8472 -0.94133,-1.88265 -0.94133,-3.01224 0,-0.65893 0.18827,-1.31785 0.5648,-1.97678 0.37653,-0.65893 0.84719,-1.12959 1.50612,-1.60025 0.65892,-0.47066 1.41198,-0.84719 2.35331,-1.12959 0.94132,-0.2824 1.88265,-0.37653 3.01223,-0.37653 2.07092,0 3.95357,0.56479 5.74208,1.78851 1.78852,1.12959 3.38877,2.91811 4.89489,5.36555 l 2.82397,-2.54157 c -1.12959,-1.50612 -2.25918,-2.72984 -3.29463,-3.67117 -1.03546,-0.94132 -2.16505,-1.69438 -3.20051,-2.16504 -1.03545,-0.47066 -2.16504,-0.84719 -3.29463,-1.03546 -1.12959,-0.18826 -2.35331,-0.2824 -3.57703,-0.2824 -1.88265,0 -3.67117,0.2824 -5.27142,0.75306 -1.60025,0.5648 -3.01224,1.31786 -4.14182,2.25918 -1.12959,0.94133 -2.07092,2.07091 -2.72984,3.38877 -0.65893,1.31785 -0.94133,2.72984 -0.94133,4.33009 0,1.69438 0.2824,3.10637 0.84719,4.23596 0.5648,1.22372 1.31786,2.25918 2.35331,3.2005 0.94133,0.94132 2.07092,1.69438 3.29464,2.44744 1.22372,0.65893 2.44744,1.31786 3.76529,1.97678 1.31786,0.5648 2.54158,1.22372 3.7653,1.78852 1.22372,0.56479 2.35331,1.22372 3.29464,1.88265 0.94132,0.65892 1.78851,1.50612 2.35331,2.35331 0.56479,0.84719 0.84719,1.88265 0.84719,3.10637 0,0.75306 -0.18827,1.41198 -0.5648,2.07091 -0.37653,0.65893 -0.84719,1.31785 -1.50612,1.78852 -0.65892,0.56479 -1.41198,0.94132 -2.25917,1.22372 -0.84719,0.28239 -1.88265,0.47066 -2.91811,0.47066 -1.12959,0 -2.07091,-0.0941 -3.10637,-0.37653 -0.94132,-0.2824 -1.88265,-0.75306 -2.72984,-1.31785 -0.84719,-0.5648 -1.69438,-1.31786 -2.63571,-2.25918 -0.84719,-0.94133 -1.78851,-2.07092 -2.6357,-3.38877 l -3.10637,2.82397 c 1.12959,1.50612 2.35331,2.72984 3.4829,3.67117 1.22372,0.94132 2.44744,1.69438 3.57703,2.16504 1.22372,0.47067 2.35331,0.84719 3.57703,1.03546 1.22372,0.18826 2.35331,0.2824 3.4829,0.2824 2.44744,0 4.61249,-0.2824 6.49514,-0.94133 1.88264,-0.56479 3.38876,-1.41198 4.61248,-2.44744 1.22373,-1.03546 2.16505,-2.25918 2.72984,-3.67116 0.5648,-1.41199 0.94133,-2.91811 0.94133,-4.51836 0,-1.60025 -0.2824,-3.01224 -0.94133,-4.23596 -0.65892,-1.03545 -1.41198,-2.07091 -2.54157,-3.01224 m 27.95733,13.55507 c -0.65893,0.47066 -1.50612,0.65893 -2.35331,0.65893 -0.5648,0 -1.12959,-0.0941 -1.60026,-0.2824 -0.56479,-0.18826 -0.94132,-0.47066 -1.31785,-0.84719 -0.37653,-0.37653 -0.65893,-0.84719 -0.84719,-1.31785 -0.18827,-0.47067 -0.2824,-1.03546 -0.2824,-1.60026 v -27.11013 h 8.66018 v -3.2005 h -8.66018 v -13.17854 h -2.16504 c -0.37653,1.97678 -0.8472,3.7653 -1.31786,5.55381 -0.47066,1.78852 -1.22372,3.29464 -2.07091,4.61249 -0.84719,1.31785 -1.97678,2.35331 -3.38877,3.10637 -1.41198,0.75306 -3.10637,1.12959 -5.27141,1.12959 v 1.88265 h 6.6834 v 27.11013 c 0,1.31786 0.18826,2.54158 0.47066,3.67117 0.2824,1.12959 0.75306,2.07091 1.41199,2.82397 0.65892,0.75306 1.41198,1.41199 2.35331,1.78851 0.94132,0.47067 2.07091,0.65893 3.38876,0.65893 2.44745,0 4.61249,-0.47066 6.30688,-1.50612 1.69438,-1.03545 3.01223,-2.44744 4.04769,-4.14182 l -1.88265,-1.31786 c -0.84719,0.5648 -1.50612,1.12959 -2.16504,1.50612 m 31.15782,-33.22874 c -0.56479,-0.37653 -1.12958,-0.75306 -1.88264,-1.03546 -0.75306,-0.28239 -1.50612,-0.37653 -2.35331,-0.37653 -1.03546,0 -2.07092,0.18827 -3.01224,0.65893 -1.03546,0.47066 -1.97678,1.03546 -2.91811,1.78852 -0.94132,0.75306 -1.78851,1.60025 -2.6357,2.54157 -0.8472,0.94133 -1.69439,1.97678 -2.35331,3.10637 v -7.24819 h -7.62473 v 38.40602 h 7.62473 v -26.63947 c 0.56479,-0.84719 1.03545,-1.69439 1.60025,-2.35331 0.56479,-0.75306 1.03545,-1.31786 1.60025,-1.88265 0.47066,-0.5648 1.03545,-0.94133 1.50612,-1.22372 0.47066,-0.2824 1.03545,-0.47066 1.50612,-0.47066 0.65892,0 1.22372,0.0941 1.60025,0.28239 0.47066,0.18827 0.84719,0.37653 1.31785,0.5648 0.37653,0.18826 0.84719,0.47066 1.41199,0.65892 0.47066,0.18827 1.22372,0.2824 2.07091,0.2824 1.41199,0 2.44744,-0.2824 3.2005,-0.94132 0.75306,-0.65893 1.12959,-1.60025 1.12959,-2.82398 0,-0.65892 -0.18826,-1.22372 -0.47066,-1.78851 -0.37653,-0.5648 -0.84719,-1.03546 -1.31786,-1.50612 m 26.26295,27.20427 -14.87292,-27.67493 h -8.66019 l 19.67368,36.61751 -2.54158,5.74207 c -0.28239,0.65893 -0.65892,1.41199 -1.03545,2.25918 -0.37653,0.84719 -0.84719,1.60025 -1.31786,2.25918 -0.47066,0.65893 -1.03545,1.22372 -1.69438,1.69438 -0.65893,0.47067 -1.31785,0.65893 -2.07091,0.65893 -0.75306,0 -1.31786,-0.0941 -1.78852,-0.2824 -0.47066,-0.18826 -0.84719,-0.37653 -1.22372,-0.56479 -0.37653,-0.18827 -0.84719,-0.47066 -1.22372,-0.5648 -0.47066,-0.18826 -1.12959,-0.28239 -1.88265,-0.28239 -0.65893,0 -1.31785,0.0941 -1.88265,0.37653 -0.56479,0.18826 -1.03545,0.56479 -1.41198,0.94132 -0.37653,0.37653 -0.65893,0.84719 -0.94133,1.31785 -0.18826,0.47067 -0.2824,1.03546 -0.2824,1.60026 0,0.65892 0.18827,1.22372 0.47067,1.78851 0.28239,0.5648 0.75306,1.03546 1.31785,1.41199 0.56479,0.37653 1.22372,0.65892 1.97678,0.94132 0.75306,0.18827 1.50612,0.2824 2.35331,0.2824 1.22372,0 2.44744,-0.18827 3.67117,-0.65893 1.22372,-0.47066 2.54157,-1.12959 3.67116,-1.97678 1.22372,-0.94132 2.35331,-2.07091 3.38877,-3.38877 1.03545,-1.41198 2.07091,-3.01223 2.82397,-4.89488 l 19.57954,-45.08943 h -4.04769 z m 75.68246,-23.06244 c -1.78852,-1.69439 -3.95356,-3.01224 -6.40101,-4.0477 -2.44744,-0.94132 -5.17728,-1.50612 -8.09538,-1.50612 -2.91811,0 -5.64795,0.5648 -8.09539,1.60025 -2.54158,1.03546 -4.61249,2.54158 -6.40101,4.42423 -1.78851,1.88265 -3.2005,4.04769 -4.23595,6.49513 -1.03546,2.54158 -1.50612,5.17729 -1.50612,8.00126 0,2.72984 0.47066,5.27141 1.50612,7.62473 1.03545,2.35331 2.44744,4.42422 4.23595,6.21273 1.78852,1.78852 3.95357,3.20051 6.40101,4.14183 2.44744,1.03546 5.17728,1.50612 8.09539,1.50612 2.9181,0 5.64794,-0.5648 8.09538,-1.69438 2.44745,-1.12959 4.61249,-2.63571 6.40101,-4.51836 1.78851,-1.88265 3.2005,-4.14183 4.23596,-6.6834 1.03545,-2.54158 1.50612,-5.27142 1.50612,-8.18952 0,-2.63571 -0.47067,-5.08315 -1.50612,-7.34233 -1.03546,-2.35331 -2.44745,-4.33009 -4.23596,-6.02447 m -3.57703,22.87417 c -0.47067,1.78852 -1.22373,3.29464 -2.16505,4.61249 -0.94132,1.31785 -1.97678,2.35331 -3.29463,3.10637 -1.22373,0.75306 -2.63571,1.12959 -4.14183,1.12959 -2.07091,0 -3.95356,-0.5648 -5.55381,-1.60025 -1.60025,-1.03546 -3.01224,-2.54158 -4.14183,-4.33009 -1.12959,-1.78852 -1.97678,-3.95356 -2.54157,-6.40101 -0.5648,-2.44744 -0.94133,-5.08315 -0.94133,-7.90712 0,-1.97678 0.2824,-3.7653 0.84719,-5.45968 0.5648,-1.69438 1.31786,-3.2005 2.16505,-4.51836 0.94132,-1.31785 1.97678,-2.25917 3.2005,-3.01223 1.22372,-0.75306 2.44744,-1.12959 3.7653,-1.12959 2.54157,0 4.61249,0.47066 6.30687,1.60025 1.69438,1.03546 3.10637,2.44744 4.14183,4.23596 1.03545,1.78851 1.88264,3.95356 2.35331,6.30687 0.47066,2.44744 0.75306,4.98902 0.75306,7.81299 0,1.97678 -0.2824,3.7653 -0.75306,5.55381 m 43.48917,-45.37182 c -0.94132,-0.56479 -1.97678,-1.03546 -3.38877,-1.41199 -1.31785,-0.37653 -2.82397,-0.47066 -4.51835,-0.47066 -1.97678,0 -3.85943,0.37653 -5.55381,1.12959 -1.78852,0.75306 -3.29464,1.88265 -4.51836,3.2005 -1.31785,1.41199 -2.35331,3.01224 -3.01224,4.80076 -0.75306,1.88264 -1.12959,3.85942 -1.12959,5.93034 v 4.51835 h -8.00125 v 3.20051 h 8.00125 v 35.20552 h 7.62473 v -35.20552 h 10.26043 v -3.20051 h -10.26043 v -9.13084 c 0,-0.94133 0.0941,-1.97678 0.37653,-2.82397 0.2824,-0.94133 0.65893,-1.78852 1.12959,-2.44745 0.47066,-0.75306 1.03545,-1.31785 1.69438,-1.69438 0.65893,-0.47066 1.41199,-0.65893 2.16505,-0.65893 1.03545,0 1.78851,0.18827 2.35331,0.5648 0.56479,0.37653 0.94132,0.84719 1.22372,1.31785 0.2824,0.5648 0.47066,1.12959 0.65893,1.78852 0.18826,0.65892 0.37653,1.22372 0.65892,1.78851 0.2824,0.5648 0.65893,1.03546 1.12959,1.31786 0.47066,0.37653 1.22372,0.56479 2.16505,0.56479 0.56479,0 1.03545,-0.0941 1.50612,-0.2824 0.47066,-0.18826 0.94132,-0.37653 1.22372,-0.75305 0.37653,-0.2824 0.65892,-0.65893 0.84719,-1.12959 0.18826,-0.47067 0.2824,-0.94133 0.2824,-1.50612 0,-0.94133 -0.2824,-1.78852 -0.75306,-2.54158 -0.5648,-0.75306 -1.22372,-1.50612 -2.16505,-2.07091 m 58.64449,29.08692 h -25.03922 v -22.68592 h -8.37778 v 49.79605 h 8.37778 v -23.90963 h 25.03922 v 23.90963 h 8.37779 v -49.79605 h -8.37779 z m 50.36085,16.19077 c -0.8472,1.12959 -1.97679,2.16505 -3.20051,3.01224 -1.22372,0.84719 -2.6357,1.60025 -4.14182,2.07091 -1.50612,0.56479 -3.10637,0.84719 -4.80076,0.84719 -1.97678,0 -3.76529,-0.47066 -5.45968,-1.31785 -1.69438,-0.94133 -3.10637,-2.16505 -4.33009,-3.7653 -1.22372,-1.60025 -2.16504,-3.4829 -2.82397,-5.74208 -0.65893,-2.16504 -1.03546,-4.61248 -1.03546,-7.15406 h 28.61626 c 0,-2.16504 -0.37653,-4.23596 -1.22372,-6.11861 -0.8472,-1.97678 -1.97678,-3.67116 -3.4829,-5.17728 -1.50612,-1.50612 -3.29464,-2.63571 -5.36555,-3.57703 -2.07091,-0.84719 -4.42422,-1.31785 -6.9658,-1.31785 -2.82397,0 -5.45968,0.56479 -7.71886,1.60025 -2.35331,1.03545 -4.33009,2.54157 -5.93034,4.42422 -1.60025,1.88265 -2.9181,4.14183 -3.85943,6.77753 -0.94132,2.63571 -1.31785,5.45968 -1.31785,8.56605 0,2.54158 0.47066,4.98902 1.50612,7.2482 0.94132,2.25918 2.35331,4.23596 4.04769,5.93034 1.69438,1.69439 3.67116,3.01224 5.93034,3.95356 2.25918,0.94133 4.70662,1.50612 7.34233,1.50612 1.97678,0 3.95356,-0.37653 5.93034,-1.12959 1.97678,-0.75306 3.7653,-1.78851 5.36555,-3.01223 1.60025,-1.31786 3.10637,-2.82398 4.33009,-4.51836 1.22372,-1.69438 2.07091,-3.57703 2.63571,-5.55381 l -2.16505,-0.94133 c -0.37653,1.12959 -1.03545,2.25918 -1.88264,3.38877 m -24.6627,-19.20301 c 0.5648,-1.22372 1.22372,-2.35331 2.07092,-3.2005 0.84719,-0.94133 1.78851,-1.60026 2.82397,-2.16505 1.03546,-0.56479 2.16504,-0.75306 3.29463,-0.75306 1.41199,0 2.63571,0.2824 3.85943,0.75306 1.22372,0.56479 2.25918,1.22372 3.10637,2.16505 0.94133,0.94132 1.60025,1.97678 2.07091,3.29463 0.47067,1.22372 0.75306,2.63571 0.75306,4.04769 H 549.5764 c 0.2824,-1.60025 0.5648,-2.9181 1.12959,-4.14182 m 61.09194,-6.30687 c -1.03546,-0.8472 -2.44744,-1.60025 -4.23596,-2.07092 -1.69438,-0.47066 -3.85943,-0.75306 -6.401,-0.75306 -2.07092,0 -4.0477,0.18827 -5.93035,0.65893 -1.88264,0.47066 -3.57703,1.12959 -4.89488,1.88265 -1.41199,0.84719 -2.54158,1.78851 -3.38877,2.82397 -0.84719,1.12959 -1.22372,2.25918 -1.22372,3.57703 0,0.65893 0.0941,1.22372 0.2824,1.78852 0.18826,0.56479 0.47066,1.03546 0.84719,1.41199 0.37653,0.37652 0.75306,0.75305 1.31785,0.94132 0.47067,0.18826 1.03546,0.37653 1.60025,0.37653 0.75306,0 1.41199,-0.18827 1.88265,-0.47066 0.47066,-0.2824 0.84719,-0.65893 1.12959,-1.12959 0.2824,-0.47066 0.47066,-1.03546 0.5648,-1.60025 0.0941,-0.65893 0.18826,-1.22372 0.18826,-1.97678 0,-0.75306 0.0941,-1.41199 0.2824,-2.16505 0.18826,-0.65893 0.47066,-1.31785 0.94132,-1.88265 0.47066,-0.56479 1.12959,-1.03545 1.88265,-1.31785 0.84719,-0.37653 1.88265,-0.47066 3.2005,-0.47066 1.12959,0 2.16505,0.18826 3.10637,0.47066 0.94133,0.2824 1.69439,0.84719 2.35331,1.60025 0.65893,0.75306 1.12959,1.69438 1.50612,2.9181 0.37653,1.22373 0.47066,2.63571 0.47066,4.42423 v 2.35331 c -1.69438,0.47066 -3.4829,0.84719 -5.27141,1.41198 -1.78852,0.47067 -3.57703,1.03546 -5.27142,1.69439 -1.69438,0.65892 -3.29463,1.41198 -4.80075,2.16504 -1.50612,0.8472 -2.82397,1.78852 -3.95356,2.82398 -1.12959,1.03545 -2.07091,2.25917 -2.72984,3.57703 -0.65893,1.31785 -0.94133,2.82397 -0.94133,4.42422 0,1.31785 0.18827,2.63571 0.65893,3.7653 0.47066,1.12959 1.12959,2.16504 1.97678,3.01223 0.84719,0.8472 1.88265,1.50612 3.10637,2.07092 1.22372,0.47066 2.54158,0.75306 4.0477,0.75306 1.60025,0 3.01223,-0.18827 4.23595,-0.5648 1.22373,-0.37653 2.35331,-0.84719 3.38877,-1.41198 1.03546,-0.5648 1.97678,-1.22373 2.82397,-1.97678 0.8472,-0.65893 1.78852,-1.41199 2.63571,-2.07092 v 5.27142 h 7.62473 v -28.99279 c 0,-1.50611 -0.2824,-2.9181 -0.75306,-4.14182 -0.37653,-1.22372 -1.22372,-2.25918 -2.25918,-3.2005 m -4.61249,28.42798 c -0.75306,0.5648 -1.50612,1.12959 -2.25918,1.60026 -0.75306,0.47066 -1.41198,0.94132 -2.16504,1.31785 -0.75306,0.37653 -1.50612,0.65893 -2.25918,0.94132 -0.75306,0.18827 -1.60025,0.37653 -2.44744,0.37653 -0.84719,0 -1.60025,-0.18826 -2.35331,-0.56479 -0.75306,-0.37653 -1.41199,-0.84719 -1.97678,-1.50612 -0.5648,-0.65893 -1.03546,-1.31785 -1.41199,-2.25918 -0.37653,-0.84719 -0.47066,-1.69438 -0.47066,-2.63571 0,-0.94132 0.18826,-1.78851 0.65892,-2.6357 0.47067,-0.84719 1.03546,-1.60025 1.88265,-2.35331 0.75306,-0.75306 1.69439,-1.41199 2.72984,-2.07092 1.03546,-0.65892 2.07092,-1.22372 3.2005,-1.78851 1.12959,-0.5648 2.25918,-1.03546 3.4829,-1.50612 1.12959,-0.47066 2.35331,-0.84719 3.38877,-1.22372 z M 625.353,599.79605 v 55.91465 h 7.62472 V 597.631 h -2.16504 z m 33.6994,51.30216 c -0.75306,0.47066 -1.50612,0.65893 -2.35331,0.65893 -0.56479,0 -1.12959,-0.0941 -1.60025,-0.2824 -0.47066,-0.18826 -0.94133,-0.47066 -1.31785,-0.84719 -0.37653,-0.37653 -0.65893,-0.84719 -0.8472,-1.31785 -0.18826,-0.47067 -0.28239,-1.03546 -0.28239,-1.60026 v -27.11013 h 8.66018 v -3.2005 h -8.66018 v -13.17854 h -2.25918 c -0.37653,1.97678 -0.84719,3.7653 -1.31786,5.55381 -0.47066,1.78852 -1.22372,3.29464 -2.07091,4.61249 -0.84719,1.31785 -1.97678,2.35331 -3.38877,3.10637 -1.41198,0.75306 -3.2005,1.12959 -5.27141,1.12959 v 1.88265 h 6.6834 v 27.11013 c 0,1.31786 0.18827,2.54158 0.47066,3.67117 0.2824,1.12959 0.75306,2.07091 1.41199,2.82397 0.65893,0.75306 1.41199,1.41199 2.35331,1.78851 0.94132,0.47067 2.07091,0.65893 3.38877,0.65893 2.44744,0 4.61248,-0.47066 6.21274,-1.50612 1.69438,-1.03545 3.01223,-2.44744 4.04769,-4.14182 l -1.88265,-1.31786 c -0.65893,0.5648 -1.31785,1.12959 -1.97678,1.50612 m 39.72388,-27.48666 c -0.47066,-1.41199 -1.22372,-2.63571 -2.07091,-3.67117 -0.8472,-1.03545 -1.88265,-1.88265 -3.10637,-2.44744 -1.22373,-0.56479 -2.44745,-0.94132 -3.7653,-0.94132 -2.63571,0 -5.17728,0.65892 -7.62473,1.97678 -2.54157,1.31785 -4.89488,3.29463 -7.24819,5.83621 v -26.63948 h -2.16505 l -5.45968,2.16505 v 55.91465 h 7.62473 v -28.52212 c 0.84719,-0.84719 1.78851,-1.60025 2.63571,-2.25918 0.94132,-0.65892 1.88264,-1.22372 2.72984,-1.78851 0.94132,-0.47066 1.88264,-0.84719 2.72984,-1.12959 0.94132,-0.2824 1.78851,-0.37653 2.54157,-0.37653 1.78852,0 3.29464,0.65893 4.42422,1.97678 1.12959,1.31785 1.69439,3.2005 1.69439,5.74208 v 26.26294 h 7.62472 v -27.5808 c 0.18827,-1.60025 0,-3.10637 -0.56479,-4.51835"
     id="path1"
     style="stroke-width:0.941324" /><path
     class="st2"
     d="M 396.61123,550.75306 H 369.5011 l 0.2824,-1.69438 c 0.84719,-4.70662 1.22372,-9.69564 1.22372,-12.51961 0,-16.56731 -7.34233,-35.95859 -28.05146,-35.95859 -7.05993,0 -13.9316,3.20051 -19.57954,7.15407 -6.49514,4.51835 -12.23722,10.1663 -16.66144,16.75557 -4.89489,7.53059 -8.66018,15.90837 -12.80201,23.8155 -0.37653,0.75306 -0.84719,1.60025 -1.22372,2.35331 h -0.47066 v -32.00502 h -8.37779 v 32.00502 h -24.47443 v -3.2005 c 0,-33.88767 -24.47442,-45.84249 -45.46595,-45.84249 H 181.6128 V 508.77 c 2.35331,-0.18826 29.83998,-0.28239 31.15783,-0.28239 23.43897,0 37.4647,15.24945 37.55883,40.75933 v 1.41199 H 146.78381 v -53.93788 c -2.44744,-0.28239 -6.87167,-0.47066 -8.75432,-0.47066 -15.24945,0 -37.93536,11.01349 -37.93536,34.64073 0,7.90712 2.82397,14.59052 8.28365,19.29715 4.98902,4.33009 11.95482,6.77753 19.48541,6.77753 h 2.63571 l 5.36555,-5.74208 0.47066,-0.47066 h -6.11861 c -12.51961,0 -20.99152,-8.09539 -20.99152,-20.23847 0,-11.10762 5.36554,-17.69689 9.8839,-21.27392 5.64794,-4.42423 12.33135,-6.02448 16.28491,-6.02448 h 2.9181 v 53.74961 h 266.48886 v -96.10919 h -8.37778 v 89.89645 z m -35.48792,-1.03546 -0.28239,1.03546 h -60.05648 l 0.37653,-1.69438 c 5.27141,-23.34484 26.26294,-41.5124 40.85346,-41.5124 4.70662,0 20.05021,2.16505 20.05021,30.59304 0,1.69438 0,7.81299 -0.94133,11.57828 m 70.41105,7.2482 h 8.37778 v -96.10919 h -8.37778 z M 122.40351,482.97772 c 3.57704,0 6.40101,-2.82397 6.40101,-6.401 0,-3.57703 -2.82397,-6.40101 -6.40101,-6.40101 -3.4829,0 -6.401,2.82398 -6.401,6.40101 0,3.57703 2.82397,6.401 6.401,6.401 m 381.51867,0.0941 c 3.57704,0 6.40101,-2.82397 6.40101,-6.401 0,-3.57703 -2.82397,-6.401 -6.40101,-6.401 -3.4829,0 -6.401,2.82397 -6.401,6.401 0,3.57703 2.82397,6.401 6.401,6.401 m -362.40979,-0.0941 c 3.4829,0 6.40101,-2.82397 6.40101,-6.401 0,-3.57703 -2.82397,-6.40101 -6.40101,-6.40101 -3.4829,0 -6.401,2.82398 -6.401,6.40101 0,3.57703 2.82397,6.401 6.401,6.401 m 449.38814,73.98808 h 8.37779 v -96.10919 h -8.37779 z m -109.1936,-25.32162 c 0,14.40226 11.95482,25.32162 27.76907,25.32162 h 18.82648 v -60.15061 c -2.44744,-0.2824 -5.17728,-0.47067 -8.18952,-0.47067 -21.55632,0 -38.40603,15.53185 -38.40603,35.29966 m 38.21776,19.10888 h -8.00125 c -14.59053,0 -21.17979,-10.1663 -21.17979,-20.23847 0,-17.69689 13.46093,-27.2984 26.07467,-27.2984 h 3.10637 z m 112.20584,-80.48321 c -3.4829,0 -6.401,2.82397 -6.401,6.401 0,3.4829 2.82397,6.401 6.401,6.401 3.4829,0 6.401,-2.82397 6.401,-6.401 -0.0941,-3.4829 -2.9181,-6.401 -6.401,-6.401 m 62.03326,27.95732 c -21.83872,0 -38.97082,14.87292 -38.97082,33.9818 0,18.16756 15.90838,24.75683 26.63947,24.75683 1.50612,0 2.54158,0 3.20051,-0.0941 l 4.14182,-4.33009 1.78852,-1.88265 h -5.55381 c -10.63697,0 -21.27393,-6.02448 -21.27393,-19.48541 0,-12.04895 11.10763,-25.50989 26.07468,-25.50989 h 1.41199 v 52.52589 c 0,10.07217 -1.88265,19.39128 -15.53185,19.39128 -1.12959,0 -2.72984,-0.18827 -4.33009,-0.47066 l -1.03546,6.401 c 1.97678,0.37653 4.23596,0.65893 7.53059,0.65893 6.49514,0 21.74459,-2.16505 21.74459,-22.40352 v -63.06871 c -2.35331,-0.2824 -4.23596,-0.47067 -5.83621,-0.47067 m -66.26922,64.01004 c 0,11.0135 -4.42422,15.53185 -15.24945,15.53185 -1.12959,0 -2.82397,-0.18826 -4.14183,-0.47066 l -1.03545,6.6834 c 3.38876,0.47066 4.89488,0.5648 7.53059,0.5648 6.40101,0 21.36806,-1.97678 21.36806,-19.86194 V 505.2871 h -8.37779 v 56.95011 z M 523.03106,470.26985 c -3.57703,0 -6.401,2.82397 -6.401,6.401 0,3.4829 2.82397,6.401 6.401,6.401 3.4829,0 6.40101,-2.82397 6.40101,-6.401 -0.0941,-3.4829 -2.91811,-6.401 -6.40101,-6.401 m 33.79354,91.96736 c 0,11.0135 -4.42422,15.53185 -15.24945,15.53185 -1.12959,0 -2.82397,-0.18826 -4.14183,-0.47066 l -1.03545,6.6834 c 3.38876,0.47066 4.89488,0.5648 7.53059,0.5648 6.401,0 21.27392,-1.97678 21.27392,-19.86194 V 505.2871 h -8.37778 z"
     id="path4"
     style="stroke-width:0.941324" /><g
     id="g1"><path
       class="st1"
       d="m 512.29997,299.98431 c -4.61249,2.82397 -9.31911,5.93034 -11.76655,7.62473 -7.5306,5.27141 -15.24945,10.82522 -22.87418,16.5673 -33.6994,25.50989 -67.11641,55.44399 -92.62629,84.15438 h -60.90368 c 0,0 149.01161,-128.58488 217.35175,-138.46878 60.90367,-8.75432 84.62504,35.29965 79.54189,82.74239 0.65892,-5.83621 0.56479,-11.76655 -0.37653,-17.03797 -2.16505,-12.70787 -7.5306,-23.15657 -14.96706,-31.25196 -6.02447,-6.58927 -13.46093,-12.42548 -23.43897,-16.19077 -8.66018,-3.29464 -17.88516,-4.70662 -27.95733,-3.7653 0.0941,0.0941 -17.50862,0.84719 -41.98305,15.62598"
       id="path2"
       style="stroke-width:0.941324" /><path
       class="st1"
       d="m 286.94697,299.98431 c 4.61249,2.82397 9.31911,5.93034 11.76655,7.62473 7.5306,5.27141 15.24945,10.82522 22.87418,16.5673 33.6994,25.50989 67.11641,55.44399 92.62629,84.15438 h 60.90368 c 0,0 -149.01161,-128.58488 -217.35175,-138.46878 -60.90367,-8.75432 -84.62504,35.29965 -79.54189,82.74239 -0.65892,-5.83621 -0.56479,-11.76655 0.37653,-17.03797 2.16505,-12.70787 7.5306,-23.15657 14.96706,-31.25196 6.02447,-6.58927 13.46093,-12.42548 23.43897,-16.19077 8.56605,-3.29464 17.88516,-4.70662 27.95733,-3.7653 -0.0941,0.0941 17.41449,0.84719 41.98305,15.62598"
       id="path3"
       style="stroke-width:0.941324" /><polygon
       class="st2"
       points="323.4,424.6 304,405.2 282,427.3 304,449.4 323.4,430 342.8,449.4 364.8,427.3 342.8,405.2 "
       id="polygon4"
       transform="matrix(0.94132413,0,0,0.94132413,-69.720741,-70.238469)" /><path
       class="st2"
       d="m 495.262,177.42391 c -1.60025,-3.67116 -3.4829,-7.34233 -5.74208,-10.82523 C 470.69344,137.41763 434.73486,126.02761 403.29463,137.0411 401.41199,130.26357 400,126.40414 400,126.40414 c 0,0 -1.50612,3.95356 -3.29463,10.63696 -31.3461,-11.01349 -67.30468,0.47067 -86.13116,29.55758 -2.25918,3.4829 -4.14183,7.15407 -5.74208,10.82523 13.27267,-14.59052 31.44023,-22.78004 50.26671,-23.90963 -17.50863,13.46093 -28.80452,34.64072 -28.80452,58.36209 0,4.14183 0.37653,8.28366 1.03546,12.23722 3.57703,-21.46219 16.5673,-39.81801 34.45246,-50.73737 -11.29589,22.59177 -10.82523,50.36084 3.85943,73.14088 2.25918,3.4829 4.80075,6.77753 7.53059,9.69564 -12.23721,-28.33386 -5.36555,-61.37433 16.94384,-82.55413 -0.47067,5.45968 -0.8472,11.29589 -0.8472,17.22623 0,35.67619 10.7311,64.57484 10.7311,64.57484 0,0 10.73109,-28.89865 10.73109,-64.57484 0,-5.93034 -0.28239,-11.67241 -0.84719,-17.22623 22.30939,21.1798 29.18105,54.22027 16.94384,82.55413 2.72984,-3.01224 5.27141,-6.21274 7.53059,-9.69564 14.68466,-22.78004 15.24945,-50.54911 3.85943,-73.14088 17.97929,10.91936 30.87543,29.27518 34.45246,50.73737 0.65893,-3.95356 1.03546,-8.00126 1.03546,-12.23722 0,-23.8155 -11.29589,-44.90116 -28.80452,-58.36209 18.92062,1.12959 37.1823,9.31911 50.36084,23.90963"
       id="path5"
       style="stroke-width:0.941324" /><path
       class="st3"
       d="m 325.54126,298.57233 c 0,0 52.99655,-76.43552 146.09351,22.68591 87.73141,93.37935 120.58362,77.65924 145.52871,48.00753 0,0 -1.31786,3.67116 -3.57704,7.15406 -1.69438,2.72984 -2.72984,4.23596 -3.10636,4.70662 -12.42548,16.66144 -30.12238,27.016 -51.86696,27.20427 -27.95733,0.2824 -62.59806,-16.47317 -101.38061,-59.30342 -86.31943,-95.35614 -131.69125,-50.45497 -131.69125,-50.45497"
       id="path6"
       style="stroke-width:0.941324" /></g></g>
</svg>
